#N canvas 2 77 1297 658 10;
#X obj 474 507 dac~;
#X obj 733 44 osc~ 1;
#X msg 1219 111 \; pd dsp 1;
#X obj 1208 29 loadbang;
#X obj 1184 153 print Running;
#X obj 1207 67 delay 100;
#X obj 95 178 -~;
#X obj 691 160 +~;
#X obj 66 52 adc~;
#X connect 1 0 6 1;
#X connect 1 0 7 1;
#X connect 3 0 5 0;
#X connect 5 0 2 0;
#X connect 5 0 4 0;
#X connect 6 0 0 0;
#X connect 7 0 0 1;
#X connect 8 0 6 0;
#X connect 8 0 7 0;
#X coords 0 -1 10 1 85 60 1 100 100;
