#N canvas 1 72 1121 520 10;
#N canvas 415 264 450 403 armoire 0;
#X obj 20 36 table tab_43;
#X obj 20 55 table tab_44;
#X obj 20 74 table tab_45;
#X obj 20 93 table tab_46;
#X obj 20 112 table tab_47;
#X obj 20 131 table tab_48;
#X obj 20 150 table tab_49;
#X obj 20 169 table tab_50;
#X obj 20 188 table tab_51;
#X obj 20 207 table tab_52;
#X obj 20 226 table tab_53;
#X obj 20 245 table tab_54;
#X obj 20 264 table tab_55;
#X obj 105 36 table tab_56;
#X obj 105 55 table tab_57;
#X obj 105 74 table tab_58;
#X obj 105 93 table tab_59;
#X obj 105 112 table tab_60;
#X obj 105 131 table tab_61;
#X obj 105 150 table tab_62;
#X obj 105 169 table tab_63;
#X obj 105 188 table tab_64;
#X obj 105 207 table tab_65;
#X obj 105 226 table tab_66;
#X obj 105 245 table tab_67;
#X obj 105 264 table tab_68;
#X obj 190 36 table tab_69;
#X obj 190 55 table tab_70;
#X obj 190 74 table tab_71;
#X obj 190 93 table tab_72;
#X obj 190 112 table tab_73;
#X obj 190 131 table tab_74;
#X obj 190 150 table tab_75;
#X obj 190 169 table tab_76;
#X obj 190 188 table tab_77;
#X restore 626 75 pd armoire;
#N canvas 29 200 763 567 armement 0;
#X obj 198 507 soundfiler;
#X obj 244 339 until;
#X obj 245 413 textfile;
#X msg 311 389 rewind;
#X msg 244 362 bang;
#X obj 244 277 pipe 1;
#X msg 280 360 read notemap.txt cr;
#X obj 198 448 unpack s f;
#X obj 198 468 pack s s f;
#X obj 181 246 symbol;
#X obj 244 256 t s b;
#X obj 244 295 t b b;
#X msg 198 488 read -resize ./\$2/\$1 tab_\$3;
#X msg 244 319 35;
#X obj 181 18 inlet;
#X symbolatom 106 133 10 0 0 0 - - -, f 10;
#X text 107 106 Chargé;
#X obj 214 49 sel 0 1 2 3 4 5 6 7 8 9;
#X msg 271 200 Cello;
#X msg 207 86 MKIIFlute;
#X msg 295 243 CombinedChoir;
#X msg 248 155 MKIIViolin;
#X msg 283 222 StringSection;
#X msg 330 124 Woodwind;
#X msg 345 151 GC3Brass;
#X msg 220 109 M300A;
#X msg 232 133 M300B;
#X msg 260 178 MKIIBrass;
#X text 430 44 Here we load the choosen instrument into;
#X text 431 57 the bank of tables.;
#X text 431 73 The sound samples for each note have to;
#X text 430 87 be in folders located in the same folder;
#X text 431 102 as yellotron.pd.;
#X text 431 117 The samples (named C \, C# \, B...) are mapped;
#X text 431 130 to midi notes (60 \, 61 \, 62...) as per the information
;
#X text 431 144 contained in notemap.txt .;
#X connect 1 0 4 0;
#X connect 2 0 7 0;
#X connect 3 0 2 0;
#X connect 4 0 2 0;
#X connect 5 0 11 0;
#X connect 6 0 2 0;
#X connect 7 0 8 0;
#X connect 7 1 8 2;
#X connect 8 0 12 0;
#X connect 9 0 8 1;
#X connect 9 0 10 0;
#X connect 9 0 15 0;
#X connect 10 0 5 0;
#X connect 10 1 6 0;
#X connect 11 0 13 0;
#X connect 11 1 3 0;
#X connect 12 0 0 0;
#X connect 13 0 1 0;
#X connect 14 0 17 0;
#X connect 17 0 19 0;
#X connect 17 1 25 0;
#X connect 17 2 26 0;
#X connect 17 3 21 0;
#X connect 17 4 27 0;
#X connect 17 5 18 0;
#X connect 17 6 22 0;
#X connect 17 7 20 0;
#X connect 17 8 23 0;
#X connect 17 9 24 0;
#X connect 18 0 9 0;
#X connect 19 0 9 0;
#X connect 20 0 9 0;
#X connect 21 0 9 0;
#X connect 22 0 9 0;
#X connect 23 0 9 0;
#X connect 24 0 9 0;
#X connect 25 0 9 0;
#X connect 26 0 9 0;
#X connect 27 0 9 0;
#X coords 0 -1 1 1 85 60 2 100 100;
#X restore 628 -35 pd armement;
#X obj 418 232 keyup;
#X obj 305 232 key;
#N canvas 364 350 450 345 convert 0;
#X obj 147 81 inlet;
#X obj 33 183 sel 113 122 115 101 100 102 116 103;
#X msg 18 229 0;
#X msg 32 262 1;
#X msg 55 232 2;
#X msg 72 264 3;
#X msg 96 232 4;
#X msg 117 261 5;
#X msg 140 231 6;
#X msg 163 259 7;
#X obj 176 134 sel 121 104 117 106 107 111 108 112 109;
#X msg 219 235 8;
#X msg 236 260 9;
#X msg 262 235 10;
#X msg 279 260 11;
#X msg 304 235 12;
#X msg 321 260 13;
#X msg 348 234 14;
#X msg 365 259 15;
#X msg 390 234 16;
#X obj 160 309 outlet;
#X text 27 15 This was desgined to play on an AZERTY keyboard \, with
the letter "q" mapped to the note C.;
#X text 27 42 For another keyboard layout you'll have to change the
numbers in the [sel] objects.;
#X connect 0 0 1 0;
#X connect 0 0 10 0;
#X connect 1 0 2 0;
#X connect 1 1 3 0;
#X connect 1 2 4 0;
#X connect 1 3 5 0;
#X connect 1 4 6 0;
#X connect 1 5 7 0;
#X connect 1 6 8 0;
#X connect 1 7 9 0;
#X connect 2 0 20 0;
#X connect 3 0 20 0;
#X connect 4 0 20 0;
#X connect 5 0 20 0;
#X connect 6 0 20 0;
#X connect 7 0 20 0;
#X connect 8 0 20 0;
#X connect 9 0 20 0;
#X connect 10 0 11 0;
#X connect 10 1 12 0;
#X connect 10 2 13 0;
#X connect 10 3 14 0;
#X connect 10 4 15 0;
#X connect 10 5 16 0;
#X connect 10 6 17 0;
#X connect 10 7 18 0;
#X connect 10 8 19 0;
#X connect 11 0 20 0;
#X connect 12 0 20 0;
#X connect 13 0 20 0;
#X connect 14 0 20 0;
#X connect 15 0 20 0;
#X connect 16 0 20 0;
#X connect 17 0 20 0;
#X connect 18 0 20 0;
#X connect 19 0 20 0;
#X restore 305 255 pd convert keys;
#N canvas 365 390 450 300 convert 0;
#X obj 147 21 inlet;
#X obj 33 123 sel 113 122 115 101 100 102 116 103;
#X msg 18 169 0;
#X msg 32 202 1;
#X msg 55 172 2;
#X msg 72 204 3;
#X msg 96 172 4;
#X msg 117 201 5;
#X msg 140 171 6;
#X msg 163 199 7;
#X obj 176 74 sel 121 104 117 106 107 111 108 112 109;
#X msg 219 175 8;
#X msg 236 200 9;
#X msg 262 175 10;
#X msg 279 200 11;
#X msg 304 175 12;
#X msg 321 200 13;
#X msg 348 174 14;
#X msg 365 199 15;
#X msg 390 174 16;
#X obj 160 249 outlet;
#X connect 0 0 1 0;
#X connect 0 0 10 0;
#X connect 1 0 2 0;
#X connect 1 1 3 0;
#X connect 1 2 4 0;
#X connect 1 3 5 0;
#X connect 1 4 6 0;
#X connect 1 5 7 0;
#X connect 1 6 8 0;
#X connect 1 7 9 0;
#X connect 2 0 20 0;
#X connect 3 0 20 0;
#X connect 4 0 20 0;
#X connect 5 0 20 0;
#X connect 6 0 20 0;
#X connect 7 0 20 0;
#X connect 8 0 20 0;
#X connect 9 0 20 0;
#X connect 10 0 11 0;
#X connect 10 1 12 0;
#X connect 10 2 13 0;
#X connect 10 3 14 0;
#X connect 10 4 15 0;
#X connect 10 5 16 0;
#X connect 10 6 17 0;
#X connect 10 7 18 0;
#X connect 10 8 19 0;
#X connect 11 0 20 0;
#X connect 12 0 20 0;
#X connect 13 0 20 0;
#X connect 14 0 20 0;
#X connect 15 0 20 0;
#X connect 16 0 20 0;
#X connect 17 0 20 0;
#X connect 18 0 20 0;
#X connect 19 0 20 0;
#X restore 418 255 pd convert keys;
#X obj 115 401 pack 0 0 0;
#X obj 305 319 t f b;
#X msg 332 340 50;
#X obj 353 319 t f b;
#X msg 380 340 0;
#X obj 113 423 route 1 2 3 4 5 6;
#X obj 827 319 s release;
#X obj 830 284 hsl 128 15 10 3010 0 0 empty empty empty -2 -8 0 10
-262144 -1 -1 0 1;
#X floatatom 875 300 5 0 0 0 - - -, f 5;
#X obj 437 331 hradio 15 1 0 2 empty empty empty 0 -8 0 10 -262144
-1 -1 0;
#X obj 437 354 * 12;
#X obj 305 297 + 48;
#X obj 418 295 + 48;
#X obj 437 376 + 48;
#X obj 104 -254 loadbang;
#X obj 437 396 s octave;
#X obj 439 274 r octave;
#X obj 628 -188 vradio 15 1 0 10 empty empty empty 0 -8 0 10 -262144
-1 -1 2;
#X text 648 -190 MkII Flute;
#X text 648 -176 M300A;
#X text 648 -161 M300B;
#X text 648 -146 MkII Violin;
#X text 648 -130 MkII Brass;
#X text 648 -115 Cello;
#X text 648 -101 String Section;
#X text 648 -85 Combined Choir;
#X text 648 -70 Woodwind;
#X text 648 -55 GC3 Brass;
#X obj 667 259 hsl 128 15 0 0.125 0 0 empty empty empty -2 -8 0 10
-262144 -1 -1 6350 1;
#X obj 664 304 s pitch;
#X obj 664 279 - 0.0625;
#X obj 115 238 notein;
#X obj 305 401 pack 0 0 0;
#X obj 303 423 route 1 2 3 4 5 6;
#X obj 305 376 poly 6;
#X obj 115 376 poly 6;
#X obj 395 511 yelloscillator;
#X obj 664 197 bendin;
#X obj 664 217 / 16383;
#X obj 664 236 / 8;
#X text 608 27 This is where all the notes;
#X text 609 42 for the instrument are stored;
#X text 609 56 in tables.;
#X text 302 187 This is to use the computer's keyboard;
#X text 302 203 to play the instrument;
#X text 111 175 This is to use a real;
#X text 111 189 midi keyboard to play.;
#X text 495 500 The audio happens here (inidivual notes are played
;
#X text 494 515 and then summed together before being sent to the audio
output (dac).;
#X obj 105 511 yelloscillator;
#X obj 204 511 yelloscillator;
#X obj 155 537 yelloscillator;
#X obj 248 537 yelloscillator;
#X obj 302 511 yelloscillator;
#X text 111 202 The bend wheel controls;
#X text 111 214 the pitch.;
#X text 581 -216 Choose an instrument.;
#X obj 407 -138 netreceive 5000;
#X obj 827 240 / 127;
#X obj 827 262 + 10;
#X obj 827 220 * 3000;
#X obj 827 195 ctlin 21;
#X obj 532 791 freeverb~;
#X msg 219 774 roomsize \$1;
#X msg 387 740 damping \$1;
#X msg 594 726 dry \$1;
#X obj 219 728 ctlin 25;
#X obj 219 750 / 127;
#X obj 387 717 / 127;
#X obj 387 695 ctlin 26;
#X obj 532 677 / 127;
#X obj 481 809 env~;
#X floatatom 481 831 5 0 0 0 - - -, f 5;
#X obj 145 569 *~ 0.3;
#X obj 145 614 *~;
#X obj 301 575 ctlin 49;
#X obj 301 597 / 127;
#X obj 542 699 expr 1-0.5*$f1;
#X msg 648 629 freeze \$1;
#X obj 648 612 tgl 15 0 empty empty empty 17 7 0 10 -262144 -1 -1 0
1;
#X obj 129 -2 netsend;
#X floatatom 192 -2 0 0 0 0 - - -;
#X msg 129 -130 connect localhost 5001;
#X msg 532 726 wet \$1;
#X obj 531 837 dac~;
#X obj 795 750 delread~ delayR 10;
#X obj 798 726 hsl 128 15 0 32 0 0 empty empty empty -2 -8 0 10 -262144
-1 -1 12700 1;
#X obj 667 750 delread~ delayL 0;
#X obj 145 658 delwrite~ delayL 32;
#X obj 145 637 delwrite~ delayR 32;
#X obj 532 655 ctlin 1;
#X obj 795 654 ctlin 22;
#X obj 795 678 / 127;
#X obj 795 701 * 32;
#X obj 140 -87 r ctlin_msg;
#X obj 340 115 s ctlin_msg;
#X obj 891 212 s c21;
#X obj 591 672 s c1;
#X obj 453 712 s c26;
#X obj 282 745 s c25;
#X obj 859 671 s c22;
#X obj 490 65 r c25;
#X obj 529 65 r c26;
#X obj 380 65 r c1;
#X obj 451 65 r c22;
#X obj 412 65 r c21;
#X obj 407 -112 route 0 1;
#X obj 545 -205 r inst_idx;
#X text 698 862 Pierre Massat \, Guitar Extended \, 2014 Antoine MADEC
\, 2016;
#X obj 369 592 s c49;
#X obj 341 65 r c49;
#X msg 134 -110 disconnect;
#X obj 849 -160 min 1;
#X obj 786 -136 min 1;
#X obj 849 -119 +;
#X obj 849 -140 * -1;
#X obj 786 -180 ctlin 72;
#X obj 849 -180 ctlin 65;
#X obj 849 36 s inst_idx;
#X obj 911 -135 r instru_nb;
#X obj 849 -97 clip;
#X obj 911 -114 - 1;
#X obj 882 -114 f 0;
#X obj 900 -51 ==;
#X obj 849 -34 spigot;
#X obj 849 -76 pipe 500;
#X text 780 -213 Generate inst idx without unwanted transitions.;
#X obj 849 14 spigot;
#X obj 920 -27 r inst_idx;
#X obj 888 -10 !=;
#X obj 437 -89 s get_ctlin;
#X obj 308 42 r get_ctlin;
#X obj 407 -67 s set_ctlin;
#X obj 148 43 r set_ctlin;
#X obj 130 88 s preset_c49;
#X obj 148 66 unpack 0 1 2 3 4 5;
#X obj 340 91 pack 0 1 2 3 4 5 6;
#X obj 130 107 s preset_c1;
#X obj 130 126 s preset_c21;
#X obj 221 88 s preset_c22;
#X obj 221 107 s preset_c25;
#X obj 221 126 s preset_c26;
#X obj 210 575 r preset_c49;
#X obj 448 655 r preset_c1;
#X obj 736 195 r preset_c21;
#X obj 704 654 r preset_c22;
#X obj 128 728 r preset_c25;
#X obj 296 695 r preset_c26;
#X msg 104 -232 \; instru_nb 10 \; inst_idx 0 \; pd dsp 1 \; set-release
10 \;, f 31;
#X obj 154 -44 r inst_idx;
#X msg 140 -67 send ctlin \$2 \$3 \$4 \$5 \$6 \$7;
#X msg 154 -24 send instru_idx \$1;
#X obj 129 -155 loadbang;
#X connect 2 0 5 0;
#X connect 3 0 4 0;
#X connect 4 0 17 0;
#X connect 5 0 18 0;
#X connect 6 0 11 0;
#X connect 7 0 40 0;
#X connect 7 1 8 0;
#X connect 8 0 40 1;
#X connect 9 0 40 0;
#X connect 9 1 10 0;
#X connect 10 0 40 1;
#X connect 11 0 55 0;
#X connect 11 1 56 0;
#X connect 11 2 57 0;
#X connect 11 3 58 0;
#X connect 11 4 59 0;
#X connect 11 5 42 0;
#X connect 13 0 14 0;
#X connect 13 0 12 0;
#X connect 15 0 16 0;
#X connect 16 0 19 0;
#X connect 17 0 7 0;
#X connect 18 0 9 0;
#X connect 19 0 21 0;
#X connect 20 0 154 0;
#X connect 22 0 18 1;
#X connect 22 0 17 1;
#X connect 23 0 1 0;
#X connect 34 0 36 0;
#X connect 36 0 35 0;
#X connect 37 0 41 0;
#X connect 37 1 41 1;
#X connect 38 0 39 0;
#X connect 39 0 55 1;
#X connect 39 1 56 1;
#X connect 39 2 59 1;
#X connect 39 3 42 1;
#X connect 39 4 57 1;
#X connect 39 5 58 1;
#X connect 40 0 38 0;
#X connect 40 1 38 1;
#X connect 40 2 38 2;
#X connect 41 0 6 0;
#X connect 41 1 6 1;
#X connect 41 2 6 2;
#X connect 42 0 79 0;
#X connect 43 0 44 0;
#X connect 44 0 45 0;
#X connect 45 0 34 0;
#X connect 55 0 79 0;
#X connect 56 0 79 0;
#X connect 57 0 79 0;
#X connect 58 0 79 0;
#X connect 59 0 79 0;
#X connect 63 0 112 0;
#X connect 64 0 65 0;
#X connect 65 0 13 0;
#X connect 66 0 64 0;
#X connect 67 0 66 0;
#X connect 67 0 102 0;
#X connect 68 0 77 0;
#X connect 68 0 90 0;
#X connect 68 1 90 1;
#X connect 69 0 68 0;
#X connect 70 0 68 0;
#X connect 71 0 68 0;
#X connect 72 0 73 0;
#X connect 72 0 105 0;
#X connect 73 0 69 0;
#X connect 74 0 70 0;
#X connect 75 0 74 0;
#X connect 75 0 104 0;
#X connect 76 0 83 0;
#X connect 76 0 89 0;
#X connect 77 0 78 0;
#X connect 79 0 80 0;
#X connect 80 0 94 0;
#X connect 80 0 95 0;
#X connect 81 0 82 0;
#X connect 81 0 115 0;
#X connect 82 0 80 1;
#X connect 83 0 71 0;
#X connect 84 0 68 0;
#X connect 85 0 84 0;
#X connect 86 0 87 0;
#X connect 88 0 86 0;
#X connect 89 0 68 0;
#X connect 91 0 68 1;
#X connect 92 0 91 0;
#X connect 93 0 68 0;
#X connect 96 0 76 0;
#X connect 96 0 103 0;
#X connect 97 0 98 0;
#X connect 97 0 106 0;
#X connect 98 0 99 0;
#X connect 99 0 92 0;
#X connect 100 0 156 0;
#X connect 107 0 142 5;
#X connect 108 0 142 6;
#X connect 109 0 142 2;
#X connect 110 0 142 4;
#X connect 111 0 142 3;
#X connect 112 0 138 0;
#X connect 112 1 136 0;
#X connect 113 0 23 0;
#X connect 116 0 142 1;
#X connect 117 0 86 0;
#X connect 118 0 121 0;
#X connect 119 0 120 0;
#X connect 120 0 126 0;
#X connect 121 0 120 0;
#X connect 122 0 119 0;
#X connect 123 0 118 0;
#X connect 125 0 127 0;
#X connect 126 0 120 1;
#X connect 126 0 129 1;
#X connect 126 0 131 0;
#X connect 127 0 126 2;
#X connect 128 0 126 1;
#X connect 129 0 130 1;
#X connect 130 0 135 0;
#X connect 130 0 133 0;
#X connect 131 0 130 0;
#X connect 131 0 129 0;
#X connect 133 0 124 0;
#X connect 134 0 135 1;
#X connect 135 0 133 1;
#X connect 137 0 142 0;
#X connect 139 0 141 0;
#X connect 141 0 140 0;
#X connect 141 1 143 0;
#X connect 141 2 144 0;
#X connect 141 3 145 0;
#X connect 141 4 146 0;
#X connect 141 5 147 0;
#X connect 142 0 101 0;
#X connect 148 0 82 0;
#X connect 149 0 76 0;
#X connect 150 0 66 0;
#X connect 151 0 98 0;
#X connect 152 0 73 0;
#X connect 153 0 74 0;
#X connect 155 0 157 0;
#X connect 156 0 86 0;
#X connect 157 0 86 0;
#X connect 158 0 88 0;
