#N canvas 1 73 1121 532 10;
#N canvas 417 264 450 403 armoire 0;
#X obj 20 36 table tab_43;
#X obj 20 55 table tab_44;
#X obj 20 74 table tab_45;
#X obj 20 93 table tab_46;
#X obj 20 112 table tab_47;
#X obj 20 131 table tab_48;
#X obj 20 150 table tab_49;
#X obj 20 169 table tab_50;
#X obj 20 188 table tab_51;
#X obj 20 207 table tab_52;
#X obj 20 226 table tab_53;
#X obj 20 245 table tab_54;
#X obj 20 264 table tab_55;
#X obj 105 36 table tab_56;
#X obj 105 55 table tab_57;
#X obj 105 74 table tab_58;
#X obj 105 93 table tab_59;
#X obj 105 112 table tab_60;
#X obj 105 131 table tab_61;
#X obj 105 150 table tab_62;
#X obj 105 169 table tab_63;
#X obj 105 188 table tab_64;
#X obj 105 207 table tab_65;
#X obj 105 226 table tab_66;
#X obj 105 245 table tab_67;
#X obj 105 264 table tab_68;
#X obj 190 36 table tab_69;
#X obj 190 55 table tab_70;
#X obj 190 74 table tab_71;
#X obj 190 93 table tab_72;
#X obj 190 112 table tab_73;
#X obj 190 131 table tab_74;
#X obj 190 150 table tab_75;
#X obj 190 169 table tab_76;
#X obj 190 188 table tab_77;
#X restore 896 305 pd armoire;
#N canvas 29 200 763 567 armement 0;
#X obj 198 507 soundfiler;
#X obj 244 339 until;
#X obj 245 413 textfile;
#X msg 311 389 rewind;
#X msg 244 362 bang;
#X obj 244 277 pipe 1;
#X msg 280 360 read notemap.txt cr;
#X obj 198 448 unpack s f;
#X obj 198 468 pack s s f;
#X obj 181 246 symbol;
#X obj 244 256 t s b;
#X obj 244 295 t b b;
#X msg 198 488 read -resize ./\$2/\$1 tab_\$3;
#X msg 244 319 35;
#X obj 181 18 inlet;
#X symbolatom 106 133 10 0 0 0 - - -, f 10;
#X text 107 106 Chargé;
#X obj 214 49 sel 0 1 2 3 4 5 6 7 8 9;
#X msg 271 200 Cello;
#X msg 207 86 MKIIFlute;
#X msg 295 243 CombinedChoir;
#X msg 248 155 MKIIViolin;
#X msg 283 222 StringSection;
#X msg 330 124 Woodwind;
#X msg 345 151 GC3Brass;
#X msg 220 109 M300A;
#X msg 232 133 M300B;
#X msg 260 178 MKIIBrass;
#X text 430 44 Here we load the choosen instrument into;
#X text 431 57 the bank of tables.;
#X text 431 73 The sound samples for each note have to;
#X text 430 87 be in folders located in the same folder;
#X text 431 102 as yellotron.pd.;
#X text 431 117 The samples (named C \, C# \, B...) are mapped;
#X text 431 130 to midi notes (60 \, 61 \, 62...) as per the information
;
#X text 431 144 contained in notemap.txt .;
#X connect 1 0 4 0;
#X connect 2 0 7 0;
#X connect 3 0 2 0;
#X connect 4 0 2 0;
#X connect 5 0 11 0;
#X connect 6 0 2 0;
#X connect 7 0 8 0;
#X connect 7 1 8 2;
#X connect 8 0 12 0;
#X connect 9 0 8 1;
#X connect 9 0 10 0;
#X connect 9 0 15 0;
#X connect 10 0 5 0;
#X connect 10 1 6 0;
#X connect 11 0 13 0;
#X connect 11 1 3 0;
#X connect 12 0 0 0;
#X connect 13 0 1 0;
#X connect 14 0 17 0;
#X connect 17 0 19 0;
#X connect 17 1 25 0;
#X connect 17 2 26 0;
#X connect 17 3 21 0;
#X connect 17 4 27 0;
#X connect 17 5 18 0;
#X connect 17 6 22 0;
#X connect 17 7 20 0;
#X connect 17 8 23 0;
#X connect 17 9 24 0;
#X connect 18 0 9 0;
#X connect 19 0 9 0;
#X connect 20 0 9 0;
#X connect 21 0 9 0;
#X connect 22 0 9 0;
#X connect 23 0 9 0;
#X connect 24 0 9 0;
#X connect 25 0 9 0;
#X connect 26 0 9 0;
#X connect 27 0 9 0;
#X coords 0 -1 1 1 85 60 2 100 100;
#X restore 898 185 pd armement;
#X obj 401 232 keyup;
#X obj 305 232 key;
#N canvas 364 350 450 345 convert 0;
#X obj 147 81 inlet;
#X obj 33 183 sel 113 122 115 101 100 102 116 103;
#X msg 18 229 0;
#X msg 32 262 1;
#X msg 55 232 2;
#X msg 72 264 3;
#X msg 96 232 4;
#X msg 117 261 5;
#X msg 140 231 6;
#X msg 163 259 7;
#X obj 176 134 sel 121 104 117 106 107 111 108 112 109;
#X msg 219 235 8;
#X msg 236 260 9;
#X msg 262 235 10;
#X msg 279 260 11;
#X msg 304 235 12;
#X msg 321 260 13;
#X msg 348 234 14;
#X msg 365 259 15;
#X msg 390 234 16;
#X obj 160 309 outlet;
#X text 27 15 This was desgined to play on an AZERTY keyboard \, with
the letter "q" mapped to the note C.;
#X text 27 42 For another keyboard layout you'll have to change the
numbers in the [sel] objects.;
#X connect 0 0 1 0;
#X connect 0 0 10 0;
#X connect 1 0 2 0;
#X connect 1 1 3 0;
#X connect 1 2 4 0;
#X connect 1 3 5 0;
#X connect 1 4 6 0;
#X connect 1 5 7 0;
#X connect 1 6 8 0;
#X connect 1 7 9 0;
#X connect 2 0 20 0;
#X connect 3 0 20 0;
#X connect 4 0 20 0;
#X connect 5 0 20 0;
#X connect 6 0 20 0;
#X connect 7 0 20 0;
#X connect 8 0 20 0;
#X connect 9 0 20 0;
#X connect 10 0 11 0;
#X connect 10 1 12 0;
#X connect 10 2 13 0;
#X connect 10 3 14 0;
#X connect 10 4 15 0;
#X connect 10 5 16 0;
#X connect 10 6 17 0;
#X connect 10 7 18 0;
#X connect 10 8 19 0;
#X connect 11 0 20 0;
#X connect 12 0 20 0;
#X connect 13 0 20 0;
#X connect 14 0 20 0;
#X connect 15 0 20 0;
#X connect 16 0 20 0;
#X connect 17 0 20 0;
#X connect 18 0 20 0;
#X connect 19 0 20 0;
#X restore 305 255 pd convert keys;
#N canvas 365 390 450 300 convert 0;
#X obj 147 21 inlet;
#X obj 33 123 sel 113 122 115 101 100 102 116 103;
#X msg 18 169 0;
#X msg 32 202 1;
#X msg 55 172 2;
#X msg 72 204 3;
#X msg 96 172 4;
#X msg 117 201 5;
#X msg 140 171 6;
#X msg 163 199 7;
#X obj 176 74 sel 121 104 117 106 107 111 108 112 109;
#X msg 219 175 8;
#X msg 236 200 9;
#X msg 262 175 10;
#X msg 279 200 11;
#X msg 304 175 12;
#X msg 321 200 13;
#X msg 348 174 14;
#X msg 365 199 15;
#X msg 390 174 16;
#X obj 160 249 outlet;
#X connect 0 0 1 0;
#X connect 0 0 10 0;
#X connect 1 0 2 0;
#X connect 1 1 3 0;
#X connect 1 2 4 0;
#X connect 1 3 5 0;
#X connect 1 4 6 0;
#X connect 1 5 7 0;
#X connect 1 6 8 0;
#X connect 1 7 9 0;
#X connect 2 0 20 0;
#X connect 3 0 20 0;
#X connect 4 0 20 0;
#X connect 5 0 20 0;
#X connect 6 0 20 0;
#X connect 7 0 20 0;
#X connect 8 0 20 0;
#X connect 9 0 20 0;
#X connect 10 0 11 0;
#X connect 10 1 12 0;
#X connect 10 2 13 0;
#X connect 10 3 14 0;
#X connect 10 4 15 0;
#X connect 10 5 16 0;
#X connect 10 6 17 0;
#X connect 10 7 18 0;
#X connect 10 8 19 0;
#X connect 11 0 20 0;
#X connect 12 0 20 0;
#X connect 13 0 20 0;
#X connect 14 0 20 0;
#X connect 15 0 20 0;
#X connect 16 0 20 0;
#X connect 17 0 20 0;
#X connect 18 0 20 0;
#X connect 19 0 20 0;
#X restore 401 255 pd convert keys;
#X obj 115 401 pack 0 0 0;
#X obj 305 319 t f b;
#X msg 332 340 50;
#X obj 353 319 t f b;
#X msg 380 340 0;
#X obj 113 423 route 1 2 3 4 5 6;
#X obj 707 259 s release;
#X obj 710 224 hsl 128 15 10 3010 0 0 empty empty empty -2 -8 0 10
-262144 -1 -1 0 1;
#X floatatom 755 240 5 0 0 0 - - -, f 5;
#X obj 707 281 hradio 15 1 0 2 empty empty empty 0 -8 0 10 -262144
-1 -1 0;
#X obj 707 304 * 12;
#X obj 305 297 + 48;
#X obj 401 295 + 48;
#X obj 707 326 + 48;
#X obj 104 6 loadbang;
#X obj 707 346 s octave;
#X obj 422 274 r octave;
#X obj 898 32 vradio 15 1 0 10 empty empty empty 0 -8 0 10 -262144
-1 -1 0;
#X text 918 30 MkII Flute;
#X text 918 44 M300A;
#X text 918 59 M300B;
#X text 918 74 MkII Violin;
#X text 918 90 MkII Brass;
#X text 918 105 Cello;
#X text 918 119 String Section;
#X text 918 135 Combined Choir;
#X text 918 150 Woodwind;
#X text 918 165 GC3 Brass;
#X obj 709 399 hsl 128 15 0 0.125 0 0 empty empty empty -2 -8 0 10
-262144 -1 -1 6350 1;
#X obj 706 444 s pitch;
#X obj 706 419 - 0.0625;
#X obj 115 238 notein;
#X obj 305 401 pack 0 0 0;
#X obj 303 423 route 1 2 3 4 5 6;
#X obj 305 376 poly 6;
#X obj 115 376 poly 6;
#X obj 395 511 yelloscillator;
#X obj 650 343 bendin;
#X obj 650 363 / 16383;
#X obj 650 382 / 8;
#X text 878 257 This is where all the notes;
#X text 879 272 for the instrument are stored;
#X text 879 286 in tables.;
#X text 302 187 This is to use the computer's keyboard;
#X text 302 203 to play the instrument;
#X text 111 175 This is to use a real;
#X text 111 189 midi keyboard to play.;
#X text 495 500 The audio happens here (inidivual notes are played
;
#X text 494 515 and then summed together before being sent to the audio
output (dac).;
#X obj 707 194 r set-release;
#X obj 706 378 r set-pitch;
#X text 679 125 This is set of control :;
#X text 679 139 speed of the release \,;
#X text 679 154 octave \, pitch.;
#X floatatom 800 465 5 0 0 0 - - -, f 5;
#X obj 105 511 yelloscillator;
#X obj 204 511 yelloscillator;
#X obj 155 537 yelloscillator;
#X obj 248 537 yelloscillator;
#X obj 302 511 yelloscillator;
#X text 111 202 The bend wheel controls;
#X text 111 214 the pitch.;
#X text 851 4 Choose an instrument.;
#X obj 637 5 netreceive 5000;
#X obj 606 193 / 127;
#X obj 606 215 + 10;
#X obj 606 173 * 3000;
#X obj 606 148 ctlin 21;
#X obj 532 791 freeverb~;
#X msg 292 733 roomsize \$1;
#X msg 437 732 damping \$1;
#X msg 611 734 dry \$1;
#X obj 292 687 ctlin 25;
#X obj 292 709 / 127;
#X obj 437 709 / 127;
#X obj 437 687 ctlin 26;
#X obj 540 618 / 127;
#X floatatom 665 677 5 0 0 0 - - -, f 5;
#X floatatom 668 736 5 0 0 0 - - -, f 5;
#X obj 481 812 env~;
#X floatatom 481 834 5 0 0 0 - - -, f 5;
#X obj 145 569 *~ 0.3;
#X obj 145 614 *~;
#X obj 187 572 ctlin 49;
#X obj 187 594 / 127;
#X obj 540 704 expr 1-0.5*$f1;
#X msg 698 619 freeze \$1;
#X obj 698 602 tgl 15 0 empty empty empty 17 7 0 10 -262144 -1 -1 0
1;
#X obj 180 621 r set-volume;
#X obj 548 647 r set-wet;
#X msg 104 27 \; pd dsp 1 \; set-release 10 \; set-pitch 0.0625 \;
set-wet 0 \; set-volume 0.7 \;, f 31;
#X obj 419 121 netsend;
#X floatatom 419 148 0 0 0 0 - - -;
#X msg 419 23 connect localhost 5001;
#X msg 610 677 wet \$1;
#X obj 531 837 dac~;
#X obj 835 690 delread~ delayR 10;
#X obj 838 666 hsl 128 15 0 32 0 0 empty empty empty -2 -8 0 10 -262144
-1 -1 0 1;
#X obj 970 690 delread~ delayL 0;
#X obj 103 675 delwrite~ delayL 32;
#X obj 103 654 delwrite~ delayR 32;
#X floatatom 252 734 5 0 0 0 - - -, f 5;
#X floatatom 398 733 5 0 0 0 - - -, f 5;
#X obj 540 596 ctlin 1;
#X obj 835 594 ctlin 22;
#X obj 835 618 / 127;
#X floatatom 791 666 5 0 0 0 - - -, f 5;
#X obj 835 641 * 32;
#X obj 443 63 r ctlin_msg;
#X obj 1020 590 s ctlin_msg;
#X obj 560 165 s c21;
#X obj 498 612 s c1;
#X obj 390 704 s c26;
#X obj 247 704 s c25;
#X obj 789 611 s c22;
#X obj 1192 527 r c25;
#X obj 1231 527 r c26;
#X obj 1081 527 r c1;
#X obj 1152 527 r c22;
#X obj 1113 527 r c21;
#X obj 637 31 route 0 1;
#X obj 637 76 s inst_idx;
#X obj 667 54 s get_ctlin_msg;
#X obj 815 15 r inst_idx;
#X obj 988 480 r get_ctlin_msg;
#X text 910 741 Pierre Massat \, Guitar Extended \, 2014 Antoine MADEC
\, 2016;
#X obj 255 589 s c49;
#X obj 1042 527 r c49;
#X msg 429 43 disconnect;
#X obj 1020 560 pack 0 1 2 3 4 5 6 7;
#X obj 1015 503 r inst_idx;
#X msg 443 98 send pdcmd echo \$2 \$3 \$4 \$5 \$6 \$7 \$8;
#X connect 2 0 5 0;
#X connect 3 0 4 0;
#X connect 4 0 17 0;
#X connect 5 0 18 0;
#X connect 6 0 11 0;
#X connect 7 0 40 0;
#X connect 7 1 8 0;
#X connect 8 0 40 1;
#X connect 9 0 40 0;
#X connect 9 1 10 0;
#X connect 10 0 40 1;
#X connect 11 0 61 0;
#X connect 11 1 62 0;
#X connect 11 2 63 0;
#X connect 11 3 64 0;
#X connect 11 4 65 0;
#X connect 11 5 42 0;
#X connect 13 0 14 0;
#X connect 13 0 12 0;
#X connect 15 0 16 0;
#X connect 16 0 19 0;
#X connect 17 0 7 0;
#X connect 18 0 9 0;
#X connect 19 0 21 0;
#X connect 20 0 96 0;
#X connect 20 0 99 0;
#X connect 22 0 18 1;
#X connect 22 0 17 1;
#X connect 23 0 1 0;
#X connect 34 0 36 0;
#X connect 36 0 35 0;
#X connect 36 0 60 0;
#X connect 37 0 41 0;
#X connect 37 1 41 1;
#X connect 38 0 39 0;
#X connect 39 0 61 1;
#X connect 39 1 62 1;
#X connect 39 2 65 1;
#X connect 39 3 42 1;
#X connect 39 4 63 1;
#X connect 39 5 64 1;
#X connect 40 0 38 0;
#X connect 40 1 38 1;
#X connect 40 2 38 2;
#X connect 41 0 6 0;
#X connect 41 1 6 1;
#X connect 41 2 6 2;
#X connect 42 0 87 0;
#X connect 43 0 44 0;
#X connect 44 0 45 0;
#X connect 45 0 34 0;
#X connect 55 0 13 0;
#X connect 56 0 34 0;
#X connect 61 0 87 0;
#X connect 62 0 87 0;
#X connect 63 0 87 0;
#X connect 64 0 87 0;
#X connect 65 0 87 0;
#X connect 69 0 126 0;
#X connect 70 0 71 0;
#X connect 71 0 13 0;
#X connect 72 0 70 0;
#X connect 73 0 72 0;
#X connect 73 0 116 0;
#X connect 74 0 85 0;
#X connect 74 0 101 0;
#X connect 74 1 101 1;
#X connect 75 0 74 0;
#X connect 76 0 74 0;
#X connect 77 0 74 0;
#X connect 78 0 79 0;
#X connect 78 0 119 0;
#X connect 79 0 75 0;
#X connect 79 0 107 0;
#X connect 80 0 76 0;
#X connect 80 0 108 0;
#X connect 81 0 80 0;
#X connect 81 0 118 0;
#X connect 82 0 83 0;
#X connect 82 0 91 0;
#X connect 82 0 100 0;
#X connect 85 0 86 0;
#X connect 87 0 88 0;
#X connect 88 0 105 0;
#X connect 88 0 106 0;
#X connect 89 0 90 0;
#X connect 89 0 132 0;
#X connect 90 0 88 1;
#X connect 91 0 77 0;
#X connect 91 0 84 0;
#X connect 92 0 74 0;
#X connect 93 0 92 0;
#X connect 94 0 88 1;
#X connect 95 0 91 0;
#X connect 95 0 100 0;
#X connect 97 0 98 0;
#X connect 99 0 97 0;
#X connect 100 0 74 0;
#X connect 102 0 74 1;
#X connect 103 0 102 0;
#X connect 103 0 112 0;
#X connect 104 0 74 0;
#X connect 109 0 82 0;
#X connect 109 0 117 0;
#X connect 110 0 111 0;
#X connect 110 0 120 0;
#X connect 111 0 113 0;
#X connect 113 0 103 0;
#X connect 114 0 137 0;
#X connect 121 0 135 6;
#X connect 122 0 135 7;
#X connect 123 0 135 3;
#X connect 124 0 135 5;
#X connect 125 0 135 4;
#X connect 126 0 127 0;
#X connect 126 1 128 0;
#X connect 129 0 23 0;
#X connect 130 0 135 0;
#X connect 133 0 135 2;
#X connect 134 0 97 0;
#X connect 135 0 115 0;
#X connect 136 0 135 1;
#X connect 137 0 97 0;
