#N canvas 29 156 810 710 10;
#X obj 165 145 *~ 0.8;
#X obj 51 27 adc~;
#X obj 166 486 dac~;
#X obj 645 286 hsl 128 15 0 1000 0 0 empty empty empty -2 -8 0 10 -262144
-1 -1 0 1;
#X obj 591 221 hsl 128 15 0 0.9 0 0 empty empty empty -2 -8 0 10 -262144
-1 -1 0 1;
#X obj 641 156 netreceive 5001 1;
#X obj 751 221 * 0.001;
#N canvas 842 235 681 636 crossfade 1;
#X floatatom 464 386 5 0 0 0 - - -, f 5;
#X floatatom 418 542 5 0 0 0 - - -, f 5;
#X obj 418 453 -;
#X msg 375 414 1;
#X obj 505 339 clip 0 1;
#X obj 112 454 *~;
#X obj 200 388 *~;
#X obj 238 206 inlet~;
#X obj 97 254 inlet~;
#X obj 444 211 inlet;
#X obj 258 727 outlet~;
#X connect 0 0 2 1;
#X connect 0 0 3 0;
#X connect 2 0 1 0;
#X connect 2 0 5 1;
#X connect 3 0 2 0;
#X connect 4 0 0 0;
#X connect 4 0 6 1;
#X connect 5 0 10 0;
#X connect 6 0 10 0;
#X connect 7 0 6 0;
#X connect 8 0 5 0;
#X connect 9 0 4 0;
#X restore 70 358 pd crossfade;
#X obj 358 520 hsl 128 15 0 1 0 0 empty empty empty -2 -8 0 10 -262144
-1 -1 0 1;
#X obj 192 75 delwrite~ delayL 1000;
#X obj 81 228 delread~ delayL 250;
#X obj 372 141 *~ 0.8;
#X obj 399 71 delwrite~ delayR 1000;
#X obj 288 224 delread~ delayR 250;
#N canvas 1 95 450 300 crossfade 0;
#X floatatom 464 386 5 0 0 0 - - -, f 5;
#X floatatom 418 542 5 0 0 0 - - -, f 5;
#X obj 418 453 -;
#X msg 375 414 1;
#X obj 505 339 clip 0 1;
#X obj 112 454 *~;
#X obj 200 388 *~;
#X obj 238 206 inlet~;
#X obj 97 254 inlet~;
#X obj 444 211 inlet;
#X obj 258 727 outlet~;
#X connect 0 0 2 1;
#X connect 0 0 3 0;
#X connect 2 0 1 0;
#X connect 2 0 5 1;
#X connect 3 0 2 0;
#X connect 4 0 0 0;
#X connect 4 0 6 1;
#X connect 5 0 10 0;
#X connect 6 0 10 0;
#X connect 7 0 6 0;
#X connect 8 0 5 0;
#X connect 9 0 4 0;
#X restore 228 368 pd crossfade;
#X obj 548 365 hsl 128 15 0 1000 0 0 empty empty empty -2 -8 0 10 -262144
-1 -1 0 1;
#X obj 641 178 route 0 1 2 3;
#X obj 474 447 / 1024;
#X connect 0 0 9 0;
#X connect 1 0 7 0;
#X connect 1 0 9 0;
#X connect 1 0 14 0;
#X connect 1 0 12 0;
#X connect 3 0 10 0;
#X connect 4 0 0 1;
#X connect 4 0 11 1;
#X connect 5 0 16 0;
#X connect 6 0 4 0;
#X connect 7 0 2 0;
#X connect 8 0 7 2;
#X connect 8 0 14 2;
#X connect 10 0 0 0;
#X connect 10 0 7 1;
#X connect 11 0 12 0;
#X connect 13 0 11 0;
#X connect 13 0 14 1;
#X connect 14 0 2 1;
#X connect 15 0 13 0;
#X connect 16 0 15 0;
#X connect 16 1 6 0;
#X connect 16 2 3 0;
#X connect 16 3 17 0;
#X connect 17 0 8 0;
