#N canvas 1 76 1297 658 10;
#X obj 474 507 dac~;
#X msg 1219 111 \; pd dsp 1;
#X obj 1208 29 loadbang;
#X obj 1184 153 print Running;
#X obj 1207 67 delay 100;
#X obj 66 52 adc~;
#X connect 2 0 4 0;
#X connect 4 0 1 0;
#X connect 4 0 3 0;
#X connect 5 0 0 0;
#X connect 5 1 0 1;
#X coords 0 -1 10 1 85 60 1 100 100;
