#N canvas 0 94 1776 858 10;
#X obj 105 106 adc~;
#X obj 196 45 netreceive 5001 1;
#X msg 86 46 \; pd dsp 1;
#X obj 83 13 loadbang;
#X obj 137 266 dac~;
#X connect 0 0 4 0;
#X connect 0 0 4 1;
#X connect 3 0 2 0;
