#N canvas 54 105 526 408 10;
#X obj 218 52 hip~ 400;
#X obj 108 208 hip~ 400;
#X obj 31 52 delwrite~ delay 1000;
#X obj 244 194 noise~;
#X obj 44 171 delread~ delay 250;
#X obj 112 114 *~ 0.8;
#X obj 168 289 dac~;
#X obj 255 140 hsl 128 15 0 1000 0 0 empty empty empty -2 -8 0 10 -262144
-1 -1 3531 1;
#X obj 268 73 hsl 128 15 0 0.9 0 0 empty empty empty -2 -8 0 10 -262144
-1 -1 2342 1;
#X floatatom 260 161 5 0 0 0 - - -;
#X floatatom 277 113 5 0 0 0 - - -;
#X obj 330 -30 netreceive 5001 1;
#X obj 330 50 route 0 1 2;
#X obj 440 93 * 0.001;
#X obj 100 19 *~;
#X obj 159 -42 phasor~ 1;
#X obj 58 -42 osc~ 200;
#X obj 158 9 *~ 0.5;
#X obj 121 -15 +~ 0.5;
#X obj 245 230 *~ 0.01;
#X connect 0 0 6 0;
#X connect 0 0 6 1;
#X connect 1 0 6 0;
#X connect 1 0 6 1;
#X connect 3 0 19 0;
#X connect 4 0 1 0;
#X connect 4 0 5 0;
#X connect 5 0 2 0;
#X connect 7 0 4 0;
#X connect 7 0 9 0;
#X connect 8 0 5 1;
#X connect 8 0 10 0;
#X connect 11 0 12 0;
#X connect 12 1 13 0;
#X connect 12 2 7 0;
#X connect 13 0 8 0;
#X connect 14 0 2 0;
#X connect 14 0 0 0;
#X connect 15 0 18 0;
#X connect 16 0 14 0;
#X connect 17 0 14 1;
#X connect 18 0 17 0;
#X connect 19 0 2 0;
