#N canvas 187 192 498 337 10;
#X obj 87 77 netreceive 5000;
#X obj 98 125 route 0 1;
#X obj 192 126 print;
#X obj 140 168 symbol \$1;
#X obj 29 204 symbol \$1;
#X msg 21 252 \; pd open \$1 /home/pi/projects/rpi/projects/bigwafpi
;
#X msg 122 196 \; pd-\$1 menuclose;
#X connect 0 0 1 0;
#X connect 0 0 2 0;
#X connect 1 0 4 0;
#X connect 1 1 3 0;
#X connect 3 0 6 0;
#X connect 4 0 5 0;
